<svg width="29" height="27" viewBox="0 0 29 27" fill="none" xmlns="http://www.w3.org/2000/svg">
<path d="M13.9004 2.92499L17.5004 9.67499L25.0379 11.025L19.6379 16.5375L20.6504 24.075L13.7879 20.7L6.92539 24.075L7.93789 16.5375L2.65039 11.025L10.1879 9.78748L13.9004 2.92499Z" fill="url(#paint0_radial_89_3066)"/>
<path d="M10.3002 9.67499L2.7627 11.025L3.1002 11.25L10.0752 10.0125L10.3002 9.67499Z" fill="#FFF47D"/>
<path d="M13.5625 3.48749L13.9 2.92499L17.5 9.67499L24.925 11.025L24.475 11.475L17.1625 10.125L13.5625 3.48749Z" fill="#FFF4A6"/>
<path d="M14.2377 3.48749L13.9002 2.92499L10.3002 9.67499L2.7627 11.025L3.3252 11.475L10.7502 10.125L14.2377 3.48749Z" fill="#FFF4A6"/>
<defs>
<radialGradient id="paint0_radial_89_3066" cx="0" cy="0" r="1" gradientUnits="userSpaceOnUse" gradientTransform="translate(11.2703 7.22238) scale(16.8753 16.8753)">
<stop stop-color="#FFF47D"/>
<stop offset="0.7951" stop-color="#FEB502"/>
</radialGradient>
</defs>
</svg>
